<svg height="48" width="48" xmlns="http://www.w3.org/2000/svg" xmlns:xlink="http://www.w3.org/1999/xlink"><defs><linearGradient id="i"><stop offset="0" style="stop-color:black;stop-opacity:1"/><stop offset="1" style="stop-color:black;stop-opacity:0"/></linearGradient><linearGradient id="a"><stop offset="0" style="stop-color:black;stop-opacity:0"/><stop offset=".5" style="stop-color:black;stop-opacity:1"/><stop offset="1" style="stop-color:black;stop-opacity:0"/></linearGradient><linearGradient gradientTransform="matrix(2.77439 0 0 1.9697 -1892.179 -872.885)" gradientUnits="userSpaceOnUse" id="m" x1="302.857" x2="302.857" xlink:href="#a" y1="366.648" y2="609.505"/><linearGradient id="l"><stop offset="0" style="stop-color:#fff;stop-opacity:1"/><stop offset="1" style="stop-color:#fff;stop-opacity:0"/></linearGradient><linearGradient id="f"><stop offset="0" style="stop-color:#fff;stop-opacity:1"/><stop offset="1" style="stop-color:#fff;stop-opacity:0"/></linearGradient><linearGradient id="c"><stop offset="0" style="stop-color:#8b8b8b;stop-opacity:1"/><stop offset=".5" style="stop-color:#d3d9da;stop-opacity:1"/><stop offset="1" style="stop-color:#828282;stop-opacity:1"/></linearGradient><linearGradient id="j"><stop offset="0" style="stop-color:#000;stop-opacity:1"/><stop offset="1" style="stop-color:#000;stop-opacity:0"/></linearGradient><linearGradient id="b"><stop offset="0" style="stop-color:#363d40;stop-opacity:1"/><stop offset=".5" style="stop-color:#818f95;stop-opacity:1"/><stop offset="1" style="stop-color:#31383b;stop-opacity:1"/></linearGradient><linearGradient id="h"><stop offset="0" style="stop-color:#353633;stop-opacity:1"/><stop offset="1" style="stop-color:#676964;stop-opacity:1"/></linearGradient><linearGradient id="g"><stop offset="0" style="stop-color:#555753;stop-opacity:1"/><stop offset="1" style="stop-color:#313330;stop-opacity:1"/></linearGradient><linearGradient id="e"><stop offset="0" style="stop-color:#555753;stop-opacity:1"/><stop offset="1" style="stop-opacity:1;stop-color:#141514"/></linearGradient><linearGradient id="d"><stop offset="0" style="stop-color:#fff;stop-opacity:1"/><stop offset="1" style="stop-color:#cbcbcb;stop-opacity:1"/></linearGradient><linearGradient id="k"><stop offset="0" style="stop-color:#7a7a7a;stop-opacity:1"/><stop offset="1" style="stop-color:#000;stop-opacity:1"/></linearGradient><linearGradient gradientUnits="userSpaceOnUse" id="s" x1="22.55" x2="38.416" xlink:href="#b" y1="39.052" y2="30.566"/><linearGradient gradientUnits="userSpaceOnUse" id="t" x1="23.661" x2="33.904" xlink:href="#c" y1="35.303" y2="30.917"/><linearGradient gradientTransform="matrix(.65524 0 0 1.89848 14.942 -35.552)" gradientUnits="userSpaceOnUse" id="A" x1="6.56" x2="6.56" xlink:href="#d" y1="29.374" y2="30.191"/><linearGradient gradientTransform="matrix(1.47778 0 0 1.98218 18.567 -51.608)" gradientUnits="userSpaceOnUse" id="z" x1="6.56" x2="6.56" xlink:href="#d" y1="29.374" y2="30.191"/><linearGradient gradientUnits="userSpaceOnUse" id="y" x1="29.395" x2="29.395" xlink:href="#e" y1="9.412" y2="12.847"/><linearGradient gradientUnits="userSpaceOnUse" id="v" x1="16.667" x2="35.888" xlink:href="#f" y1="16.125" y2="57.125"/><linearGradient gradientTransform="matrix(1.025 0 0 1 -.068 0)" gradientUnits="userSpaceOnUse" id="u" x1="7.871" x2="14.844" xlink:href="#g" y1="29.719" y2="29.719"/><linearGradient gradientUnits="userSpaceOnUse" id="r" x1="16.353" x2="30.13" xlink:href="#h" y1="26.093" y2="26.093"/><linearGradient gradientTransform="matrix(1.03576 0 0 1 -.162 .202)" gradientUnits="userSpaceOnUse" id="q" x1="7.871" x2="14.844" xlink:href="#g" y1="29.719" y2="29.719"/><radialGradient cx="605.714" cy="486.648" fx="605.714" fy="486.648" gradientTransform="matrix(-2.77439 0 0 1.9697 112.762 -872.885)" gradientUnits="userSpaceOnUse" id="o" r="117.143" xlink:href="#i"/><radialGradient cx="605.714" cy="486.648" fx="605.714" fy="486.648" gradientTransform="matrix(2.77439 0 0 1.9697 -1891.633 -872.885)" gradientUnits="userSpaceOnUse" id="n" r="117.143" xlink:href="#i"/><radialGradient cx="25.375" cy="36.813" fx="25.375" fy="36.813" gradientTransform="matrix(1 0 0 .45357 0 20.115)" gradientUnits="userSpaceOnUse" id="p" r="17.5" xlink:href="#j"/><radialGradient cx="16.875" cy="23.672" fx="16.875" fy="23.672" gradientTransform="matrix(1 0 0 1.01351 0 -.305)" gradientUnits="userSpaceOnUse" id="w" r="4.625" xlink:href="#k"/><radialGradient cx="14.75" cy="22.688" fx="14.75" fy="22.688" gradientTransform="matrix(1 0 0 1.03571 0 -.81)" gradientUnits="userSpaceOnUse" id="x" r="1.75" xlink:href="#l"/></defs><path style="opacity:.40206185;color:#000;fill:url(#m);fill-opacity:1;fill-rule:nonzero;stroke:none;stroke-width:1;stroke-linecap:round;stroke-linejoin:miter;marker:none;marker-start:none;marker-mid:none;marker-end:none;stroke-miterlimit:4;stroke-dasharray:none;stroke-dashoffset:0;stroke-opacity:1;visibility:visible;display:inline;overflow:visible" d="M-1559.252-150.697h1339.633V327.66h-1339.633z" transform="matrix(.02453 0 0 .02087 45.15 37.315)"/><path d="M-219.619-150.68v478.33c142.874.9 345.4-107.17 345.4-239.196S-33.655-150.68-219.619-150.68z" style="opacity:.40206185;color:#000;fill:url(#n);fill-opacity:1;fill-rule:nonzero;stroke:none;stroke-width:1;stroke-linecap:round;stroke-linejoin:miter;marker:none;marker-start:none;marker-mid:none;marker-end:none;stroke-miterlimit:4;stroke-dasharray:none;stroke-dashoffset:0;stroke-opacity:1;visibility:visible;display:inline;overflow:visible" transform="matrix(.02453 0 0 .02087 45.15 37.315)"/><path d="M-1559.252-150.68v478.33c-142.875.9-345.4-107.17-345.4-239.196s159.436-239.134 345.4-239.134z" style="opacity:.40206185;color:#000;fill:url(#o);fill-opacity:1;fill-rule:nonzero;stroke:none;stroke-width:1;stroke-linecap:round;stroke-linejoin:miter;marker:none;marker-start:none;marker-mid:none;marker-end:none;stroke-miterlimit:4;stroke-dasharray:none;stroke-dashoffset:0;stroke-opacity:1;visibility:visible;display:inline;overflow:visible" transform="matrix(.02453 0 0 .02087 45.15 37.315)"/><path d="M42.875 36.813a17.5 7.938 0 1 1-35 0 17.5 7.938 0 1 1 35 0z" style="opacity:.39873418;color:#000;fill:url(#p);fill-opacity:1;fill-rule:nonzero;stroke:none;stroke-width:1;stroke-linecap:butt;stroke-linejoin:miter;marker:none;marker-start:none;marker-mid:none;marker-end:none;stroke-miterlimit:4;stroke-dasharray:none;stroke-dashoffset:0;stroke-opacity:1;visibility:visible;display:block;overflow:visible" transform="matrix(.6932 0 0 .81102 13.91 9.957)"/><path d="M8.933 18.92c-3.471 0-6.28 1.12-6.28 2.5 0 .158.158.29.227.438-.01.05-.097.041-.097.094 0 0-.13 16.312-.13 16.469 0 1.38 2.809 2.5 6.28 2.5s6.28-1.12 6.28-2.5l-.13-16.469c0-.053-.087-.044-.098-.094.07-.149.227-.28.227-.437 0-1.38-2.808-2.5-6.28-2.5z" style="opacity:1;color:#000;fill:url(#q);fill-opacity:1;fill-rule:nonzero;stroke:#282828;stroke-width:2.0000002;stroke-linecap:butt;stroke-linejoin:miter;marker:none;marker-start:none;marker-mid:none;marker-end:none;stroke-miterlimit:4;stroke-dasharray:none;stroke-dashoffset:0;stroke-opacity:1;visibility:visible;display:block;overflow:visible"/><path d="M2.143 38.648h40.143c1.11.1 2.22-1.15 2.22-1.857V19.143c-.102-1.111-3.97-2.424-4.879-2.525h-2.432l-2.924-3.085H23.714l-3.435 3.032s-6.727.211-11.941 1.167C3.123 18.687 2 20.319 2 21.532l.143 17.116z" style="opacity:1;color:#000;fill:url(#r);fill-opacity:1;fill-rule:nonzero;stroke:#282828;stroke-width:1;stroke-linecap:butt;stroke-linejoin:miter;marker:none;marker-start:none;marker-mid:none;marker-end:none;stroke-miterlimit:4;stroke-dasharray:none;stroke-dashoffset:0;stroke-opacity:1;visibility:visible;display:block;overflow:visible"/><path d="m33.89 13.907 1.364 3.788 1.87-.454-3.233-3.334z" style="opacity:1;color:#000;fill:#3f413e;fill-opacity:1;fill-rule:nonzero;stroke:none;stroke-width:1;stroke-linecap:butt;stroke-linejoin:miter;marker:none;marker-start:none;marker-mid:none;marker-end:none;stroke-miterlimit:4;stroke-dasharray:none;stroke-dashoffset:0;stroke-opacity:1;visibility:visible;display:block;overflow:visible"/><path d="M43.134 33.908a1.97 1.97 0 1 1-3.94 0 1.97 1.97 0 1 1 3.94 0z" style="opacity:1;color:#000;fill:#585b57;fill-opacity:1;fill-rule:nonzero;stroke:#a7a7a7;stroke-width:.79559946;stroke-linecap:butt;stroke-linejoin:miter;marker:none;marker-start:none;marker-mid:none;marker-end:none;stroke-miterlimit:4;stroke-dasharray:none;stroke-dashoffset:0;stroke-opacity:1;visibility:visible;display:block;overflow:visible" transform="translate(-11.687 -10.025) scale(1.25691)"/><path d="M40.714 33.571a10.143 10.143 0 1 1-20.285 0 10.143 10.143 0 1 1 20.285 0z" style="opacity:1;color:#000;fill:url(#s);fill-opacity:1;fill-rule:nonzero;stroke:none;stroke-width:1;stroke-linecap:butt;stroke-linejoin:miter;marker:none;marker-start:none;marker-mid:none;marker-end:none;stroke-miterlimit:4;stroke-dasharray:none;stroke-dashoffset:0;stroke-opacity:1;visibility:visible;display:block;overflow:visible" transform="translate(-3.32 -4.386) scale(1.08292)"/><path d="M40.714 33.571a10.143 10.143 0 1 1-20.285 0 10.143 10.143 0 1 1 20.285 0z" style="opacity:1;color:#000;fill:url(#t);fill-opacity:1;fill-rule:nonzero;stroke:none;stroke-width:1;stroke-linecap:butt;stroke-linejoin:miter;marker:none;marker-start:none;marker-mid:none;marker-end:none;stroke-miterlimit:4;stroke-dasharray:none;stroke-dashoffset:0;stroke-opacity:1;visibility:visible;display:block;overflow:visible" transform="translate(-3.155 -2.496) scale(1.08292)"/><path d="M8.933 18.719c-3.435 0-6.214 1.12-6.214 2.5 0 .157.155.288.224.437-.01.05-.096.041-.096.094 0 0-.128 16.312-.128 16.469 0 1.38 2.779 2.5 6.214 2.5 3.435 0 6.214-1.12 6.214-2.5l-.128-16.469c0-.053-.086-.044-.096-.094.068-.149.224-.28.224-.437 0-1.38-2.779-2.5-6.214-2.5z" style="opacity:1;color:#000;fill:url(#u);fill-opacity:1;fill-rule:nonzero;stroke:none;stroke-width:1;stroke-linecap:butt;stroke-linejoin:miter;marker:none;marker-start:none;marker-mid:none;marker-end:none;stroke-miterlimit:4;stroke-dasharray:none;stroke-dashoffset:0;stroke-opacity:1;visibility:visible;display:block;overflow:visible"/><path d="m24.244 14.16-.758 3.636-.354 1.213-2.777-2.071 3.889-2.778z" style="opacity:1;color:#000;fill:#7b7e79;fill-opacity:1;fill-rule:nonzero;stroke:none;stroke-width:1;stroke-linecap:butt;stroke-linejoin:miter;marker:none;marker-start:none;marker-mid:none;marker-end:none;stroke-miterlimit:4;stroke-dasharray:none;stroke-dashoffset:0;stroke-opacity:1;visibility:visible;display:block;overflow:visible"/><path d="m19.03 27.995 4.91-8.582h11.213l4.839 7.115-4.738-8.732H23.436l-4.406 10.2z" style="opacity:1;color:#000;fill:#a7aba7;fill-opacity:1;fill-rule:nonzero;stroke:none;stroke-width:1;stroke-linecap:butt;stroke-linejoin:miter;marker:none;marker-start:none;marker-mid:none;marker-end:none;stroke-miterlimit:4;stroke-dasharray:none;stroke-dashoffset:0;stroke-opacity:1;visibility:visible;display:block;overflow:visible"/><path d="M20.313 16.875s-12.146.638-16.157 2.75c-.852.449-1.488.84-1.488 1.442 0 1.38 2.824 3.027 6.176 3.027 3.351 0 6-1.495 6-2.875 0-.315-.18-.63-.438-.907l8.625-1.812-2.718-1.625z" style="color:#000;fill:#888a85;fill-opacity:1;fill-rule:nonzero;stroke:none;stroke-width:1;stroke-linecap:butt;stroke-linejoin:miter;marker:none;marker-start:none;marker-mid:none;marker-end:none;stroke-miterlimit:4;stroke-dashoffset:0;stroke-opacity:1;visibility:visible;display:block;overflow:visible"/><path d="m24.553 14.482-3.917 2.793s-6.445.435-11.25 1.315c-4.804.88-6.22 1.834-6.344 3.013l.226 16.592c.296 1.16 3.23 2.073 6.228 2.073 2.999 0 5.502-1.6 5.798-2.76l26.488.124c1.461.03 1.731-.7 1.731-1.352V19.602c0-.712-2.841-1.864-3.679-1.957l-2.933.063-3.24-3.226h-9.108z" style="opacity:.41772148;color:#000;fill:none;fill-opacity:1;fill-rule:nonzero;stroke:url(#v);stroke-width:1;stroke-linecap:butt;stroke-linejoin:miter;marker:none;marker-start:none;marker-mid:none;marker-end:none;stroke-miterlimit:4;stroke-dasharray:none;stroke-dashoffset:0;stroke-opacity:1;visibility:visible;display:block;overflow:visible"/><path d="M40.714 33.571a10.143 10.143 0 1 1-20.285 0 10.143 10.143 0 1 1 20.285 0z" style="opacity:1;color:#000;fill:#2e3436;fill-opacity:1;fill-rule:nonzero;stroke:none;stroke-width:1;stroke-linecap:butt;stroke-linejoin:miter;marker:none;marker-start:none;marker-mid:none;marker-end:none;stroke-miterlimit:4;stroke-dasharray:none;stroke-dashoffset:0;stroke-opacity:1;visibility:visible;display:block;overflow:visible" transform="translate(-3.05 -1.569) scale(1.08292)"/><path d="M19.875 22.563a4.125 4.188 0 1 1-8.25 0 4.125 4.188 0 1 1 8.25 0z" style="color:#000;fill:url(#w);fill-opacity:1;fill-rule:nonzero;stroke:url(#linearGradient1433);stroke-width:.59630877;stroke-linecap:butt;stroke-linejoin:miter;marker:none;marker-start:none;marker-mid:none;marker-end:none;stroke-miterlimit:4;stroke-dashoffset:0;stroke-opacity:1;visibility:visible;display:inline;overflow:visible;font-family:Bitstream Vera Sans" transform="translate(3.488 -3.05) scale(1.67698)"/><path d="M16.5 22.688a1.75 1.813 0 1 1-3.5 0 1.75 1.813 0 1 1 3.5 0z" style="opacity:.60759497;color:#000;fill:#fff;fill-opacity:.52866244;fill-rule:nonzero;stroke:none;stroke-width:1;stroke-linecap:butt;stroke-linejoin:miter;marker:none;marker-start:none;marker-mid:none;marker-end:none;stroke-miterlimit:4;stroke-dashoffset:0;stroke-opacity:1;visibility:visible;display:inline;overflow:visible;font-family:Bitstream Vera Sans" transform="translate(5.5 -3.195) scale(1.67698)"/><path d="M16.5 22.688a1.75 1.813 0 1 1-3.5 0 1.75 1.813 0 1 1 3.5 0z" style="opacity:.37341771;color:#000;fill:#fff;fill-opacity:1;fill-rule:nonzero;stroke:none;stroke-width:1;stroke-linecap:butt;stroke-linejoin:miter;marker:none;marker-start:none;marker-mid:none;marker-end:none;stroke-miterlimit:4;stroke-dashoffset:0;stroke-opacity:1;visibility:visible;display:inline;overflow:visible;font-family:Bitstream Vera Sans" transform="translate(3.334 -5) scale(1.67325)"/><path d="M16.5 22.688a1.75 1.813 0 1 1-3.5 0 1.75 1.813 0 1 1 3.5 0z" style="opacity:1;color:#000;fill:url(#x);fill-opacity:1;fill-rule:nonzero;stroke:none;stroke-width:1;stroke-linecap:butt;stroke-linejoin:miter;marker:none;marker-start:none;marker-mid:none;marker-end:none;stroke-miterlimit:4;stroke-dashoffset:0;stroke-opacity:1;visibility:visible;display:inline;overflow:visible;font-family:Bitstream Vera Sans" transform="translate(27.451 28.982) scale(.41273)"/><path d="m22.223 15.574 2.93-2.121.909-2.425h6.364l1.313 2.93 2.829 2.424-2.526-10.91h-9.9l-1.919 10.102z" style="opacity:1;color:#000;fill:url(#y);fill-opacity:1;fill-rule:nonzero;stroke:none;stroke-width:1;stroke-linecap:butt;stroke-linejoin:miter;marker:none;marker-start:none;marker-mid:none;marker-end:none;stroke-miterlimit:4;stroke-dasharray:none;stroke-dashoffset:0;stroke-opacity:1;visibility:visible;display:block;overflow:visible"/><rect height="4.584" rx="1.504" ry="1.504" style="color:#000;fill:url(#z);fill-opacity:1;fill-rule:nonzero;stroke:url(#linearGradient1458);stroke-width:1.0000004;stroke-linecap:butt;stroke-linejoin:miter;marker:none;marker-start:none;marker-mid:none;marker-end:none;stroke-miterlimit:4;stroke-dashoffset:0;stroke-opacity:1;visibility:visible;display:inline;overflow:visible;font-family:Bitstream Vera Sans" width="9.329" x="24.479" y="4.637"/><path d="M14.857 38.214a6.071 2.5 0 1 1-12.143 0 6.071 2.5 0 1 1 12.143 0z" style="opacity:1;color:#000;fill:#2f302e;fill-opacity:1;fill-rule:nonzero;stroke:none;stroke-width:1;stroke-linecap:butt;stroke-linejoin:miter;marker:none;marker-start:none;marker-mid:none;marker-end:none;stroke-miterlimit:4;stroke-dasharray:none;stroke-dashoffset:0;stroke-opacity:1;visibility:visible;display:block;overflow:visible" transform="matrix(.35944 0 0 .55434 7.699 .073)"/><path d="M2.703 21.25c-.135 1.786 2.444 3.88 6.196 3.882 3.814.001 5.85-2.184 6.051-4.103l4.546-1.717-5.152 1.01c.101 1.92-1.702 3.83-5.44 3.77-4.086-.065-5.576-1.654-6.2-2.841z" style="opacity:1;color:#000;fill:#c4c6c3;fill-opacity:1;fill-rule:nonzero;stroke:none;stroke-width:1;stroke-linecap:butt;stroke-linejoin:miter;marker:none;marker-start:none;marker-mid:none;marker-end:none;stroke-miterlimit:4;stroke-dasharray:none;stroke-dashoffset:0;stroke-opacity:1;visibility:visible;display:block;overflow:visible"/><rect height="4.39" rx=".695" ry=".695" style="color:#000;fill:url(#A);fill-opacity:1;fill-rule:nonzero;stroke:#464646;stroke-width:.9999997;stroke-linecap:butt;stroke-linejoin:miter;marker:none;marker-start:none;marker-mid:none;marker-end:none;stroke-miterlimit:4;stroke-dashoffset:0;stroke-opacity:1;visibility:visible;display:inline;overflow:visible;font-family:Bitstream Vera Sans" width="4.136" x="17.563" y="18.317"/><path d="M16.5 22.688a1.75 1.813 0 1 1-3.5 0 1.75 1.813 0 1 1 3.5 0z" style="opacity:.43037972;color:#000;fill:#fff;fill-opacity:1;fill-rule:nonzero;stroke:none;stroke-width:1;stroke-linecap:butt;stroke-linejoin:miter;marker:none;marker-start:none;marker-mid:none;marker-end:none;stroke-miterlimit:4;stroke-dashoffset:0;stroke-opacity:1;visibility:visible;display:inline;overflow:visible;font-family:Bitstream Vera Sans" transform="translate(4.452 12.387) scale(.38983)"/><path d="M16.5 22.688a1.75 1.813 0 1 1-3.5 0 1.75 1.813 0 1 1 3.5 0z" style="opacity:1;color:#000;fill:#fff;fill-opacity:1;fill-rule:nonzero;stroke:none;stroke-width:1;stroke-linecap:butt;stroke-linejoin:miter;marker:none;marker-start:none;marker-mid:none;marker-end:none;stroke-miterlimit:4;stroke-dashoffset:0;stroke-opacity:1;visibility:visible;display:inline;overflow:visible;font-family:Bitstream Vera Sans" transform="translate(20.303 21.393) scale(.45611)"/><path d="M42.25 20.563a1.625.688 0 1 1-3.25 0 1.625.688 0 1 1 3.25 0z" style="opacity:1;color:#000;fill:#c5c5c5;fill-opacity:.52866244;fill-rule:nonzero;stroke:none;stroke-width:2;stroke-linecap:butt;stroke-linejoin:miter;marker:none;marker-start:none;marker-mid:none;marker-end:none;stroke-miterlimit:4;stroke-dasharray:none;stroke-dashoffset:0;stroke-opacity:1;visibility:visible;display:block;overflow:visible" transform="matrix(1.03846 0 0 1.63636 -1.188 -12.71)"/><path d="M42.25 20.563a1.625.688 0 1 1-3.25 0 1.625.688 0 1 1 3.25 0z" style="opacity:1;color:#000;fill:#565656;fill-opacity:1;fill-rule:nonzero;stroke:none;stroke-width:2;stroke-linecap:butt;stroke-linejoin:miter;marker:none;marker-start:none;marker-mid:none;marker-end:none;stroke-miterlimit:4;stroke-dasharray:none;stroke-dashoffset:0;stroke-opacity:1;visibility:visible;display:block;overflow:visible" transform="matrix(1.03846 0 0 1.63636 -1.125 -12.335)"/><path d="M23.271 28.422c2.603-3.367 8.756-4.193 12.275-1.041" style="opacity:1;color:#000;fill:none;fill-opacity:1;fill-rule:nonzero;stroke:#777;stroke-width:1.0000007;stroke-linecap:butt;stroke-linejoin:miter;marker:none;marker-start:none;marker-mid:none;marker-end:none;stroke-miterlimit:4;stroke-dasharray:none;stroke-dashoffset:0;stroke-opacity:1;visibility:visible;display:block;overflow:visible"/><path d="M30.22 31.818c-1.62 0-2.91 1.368-2.91 3.046 0 .384.246.643.372.981.127.018.207.136.338.136 1.617 0 2.91-1.338 2.91-3.012 0-.394-.274-.67-.405-1.016-.115-.014-.186-.135-.305-.135z" style="opacity:.6708861;color:#000;fill:#fff;fill-opacity:1;fill-rule:nonzero;stroke:none;stroke-width:1;stroke-linecap:butt;stroke-linejoin:miter;marker:none;marker-start:none;marker-mid:none;marker-end:none;stroke-miterlimit:4;stroke-dashoffset:0;stroke-opacity:1;visibility:visible;display:inline;overflow:visible;font-family:Bitstream Vera Sans"/></svg>